<svg width="80" height="81" viewBox="0 0 80 81" fill="none" xmlns="http://www.w3.org/2000/svg">
<g clip-path="url(#clip0_132_579)">
<path d="M26.6667 24.2921C26.6667 27.8283 28.0715 31.2197 30.572 33.7202C33.0725 36.2206 36.4639 37.6254 40.0001 37.6254C43.5363 37.6254 46.9277 36.2206 49.4282 33.7202C51.9287 31.2197 53.3334 27.8283 53.3334 24.2921C53.3334 20.7559 51.9287 17.3645 49.4282 14.864C46.9277 12.3635 43.5363 10.9587 40.0001 10.9587C36.4639 10.9587 33.0725 12.3635 30.572 14.864C28.0715 17.3645 26.6667 20.7559 26.6667 24.2921Z" stroke="white" stroke-width="1.75" stroke-linecap="round" stroke-linejoin="round"/>
<path d="M20 70.9587V64.2921C20 60.7559 21.4048 57.3645 23.9052 54.864C26.4057 52.3635 29.7971 50.9587 33.3333 50.9587H46.6667C50.2029 50.9587 53.5943 52.3635 56.0948 54.864C58.5952 57.3645 60 60.7559 60 64.2921V70.9587" stroke="white" stroke-width="1.75" stroke-linecap="round" stroke-linejoin="round"/>
</g>
<defs>
<clipPath id="clip0_132_579">
<rect width="80" height="80" fill="white" transform="translate(0 0.95874)"/>
</clipPath>
</defs>
</svg>
