<svg width="302" height="172" viewBox="0 0 302 172" fill="none" xmlns="http://www.w3.org/2000/svg">
<path d="M147.169 170.809C111.712 170.809 76.255 170.563 40.8054 170.997C32.5147 171.099 26.0607 168.169 20.1803 163.597C9.71893 155.474 3.0617 144.797 1.41373 131.892C0.0561445 121.251 1.99451 110.914 7.89672 101.554C12.347 94.4867 17.8354 88.4682 25.5888 84.6633C27.5272 83.7085 28.1298 82.1894 27.8249 80.1567C26.4528 70.8036 29.5164 62.4486 35.8106 55.8515C44.7402 46.4911 56.2034 43.0696 69.2493 46.1439C71.1295 46.5851 71.812 46.4332 72.7703 44.8418C86.8034 21.4191 107.683 7.38575 135.175 2.49577C161.71 -2.22783 185.406 4.40547 206.546 20.0013C218.757 29.0145 227.382 40.9139 233.226 54.6001C234.322 57.168 235.564 57.7178 238.177 57.5731C256.327 56.5749 271.79 62.8827 284.197 75.3174C297.156 88.3019 302.819 104.498 300.488 122.336C297.584 144.594 285.076 160.675 263.572 169.862C261.709 170.591 259.714 170.928 257.714 170.853C220.872 170.809 184.024 170.795 147.169 170.809Z" fill="#999999" stroke="black" stroke-width="0.1" stroke-miterlimit="10"/>
<path d="M152.889 166.815C119.443 166.815 85.9894 166.577 52.5502 166.997C44.7319 167.096 38.6423 164.3 33.0978 159.949C23.2281 152.242 16.9448 142.027 15.3883 129.709C14.1116 119.571 15.9406 109.734 21.5067 100.801C25.7027 94.0675 30.8814 88.3362 38.1976 84.6859C40.0266 83.775 40.5933 82.3317 40.3064 80.3909C39.0153 71.4997 41.8987 63.5754 47.8521 57.2696C56.2728 48.3575 67.0893 45.0925 79.4121 48.0211C81.1837 48.4415 81.8293 48.2944 82.733 46.781C95.9595 24.4585 115.677 11.0902 141.585 6.42392C166.625 1.92578 188.975 8.24559 208.908 23.1063C220.421 31.6961 228.547 43.0186 234.063 56.0786C235.103 58.5238 236.272 59.0493 238.733 58.8811C255.868 57.9353 270.45 63.9398 282.149 75.7877C294.343 88.168 299.715 103.603 297.52 120.573C294.773 141.781 282.974 157.111 262.689 165.855C260.94 166.556 259.056 166.881 257.166 166.808C222.407 166.808 187.648 166.811 152.889 166.815Z" fill="#E6E6E6" stroke="black" stroke-width="0.1" stroke-miterlimit="10"/>
</svg>
