<svg width="50" height="50" viewBox="0 0 50 50" fill="none" xmlns="http://www.w3.org/2000/svg">
<path d="M37.5 16.6667C39.1576 16.6667 40.7473 17.3252 41.9194 18.4973C43.0915 19.6694 43.75 21.2591 43.75 22.9167C43.75 24.5744 43.0915 26.1641 41.9194 27.3362C40.7473 28.5083 39.1576 29.1667 37.5 29.1667" stroke="black" stroke-width="1.75" stroke-linecap="round" stroke-linejoin="round"/>
<path d="M20.8333 16.6667V39.5834C20.8333 40.1359 20.6138 40.6659 20.2231 41.0566C19.8324 41.4473 19.3025 41.6667 18.7499 41.6667H16.6666C16.1141 41.6667 15.5841 41.4473 15.1934 41.0566C14.8027 40.6659 14.5833 40.1359 14.5833 39.5834V29.1667" stroke="black" stroke-width="1.75" stroke-linecap="round" stroke-linejoin="round"/>
<path d="M25 16.6666L34.425 8.81247C34.6989 8.58436 35.0321 8.43904 35.3856 8.39353C35.7391 8.34801 36.0982 8.4042 36.4209 8.55549C36.7436 8.70679 37.0165 8.94694 37.2077 9.24778C37.3988 9.54863 37.5002 9.89772 37.5 10.2541V35.5791C37.5002 35.9356 37.3988 36.2846 37.2077 36.5855C37.0165 36.8863 36.7436 37.1265 36.4209 37.2778C36.0982 37.4291 35.7391 37.4853 35.3856 37.4398C35.0321 37.3942 34.6989 37.2489 34.425 37.0208L25 29.1666H8.33333C7.7808 29.1666 7.25089 28.9471 6.86019 28.5564C6.46949 28.1657 6.25 27.6358 6.25 27.0833V18.75C6.25 18.1974 6.46949 17.6675 6.86019 17.2768C7.25089 16.8861 7.7808 16.6666 8.33333 16.6666H25Z" fill="#275E8A" stroke="black" stroke-width="1.75" stroke-linecap="round" stroke-linejoin="round"/>
</svg>
