<svg width="82" height="52" viewBox="0 0 82 52" fill="none" xmlns="http://www.w3.org/2000/svg">
<path d="M39.9783 50.9439C30.5231 50.9439 21.068 50.8716 11.6148 50.9993C9.40392 51.029 7.68286 50.1674 6.11475 48.8228C3.32505 46.4335 1.54979 43.2932 1.11033 39.4977C0.748305 36.368 1.2652 33.3278 2.83913 30.5747C4.02586 28.4961 5.48944 26.726 7.55702 25.6069C8.07392 25.326 8.23461 24.8792 8.1533 24.2814C7.7874 21.5305 8.60437 19.0731 10.2828 17.1328C12.664 14.3797 15.7209 13.3734 19.1998 14.2776C19.7012 14.4074 19.8832 14.3627 20.1387 13.8947C23.8809 7.00562 29.4487 2.87816 36.7801 1.43993C43.856 0.050637 50.1749 2.00161 55.8124 6.58862C59.0687 9.23956 61.3686 12.7394 62.927 16.7647C63.2193 17.52 63.5504 17.6817 64.2473 17.6392C69.0872 17.3456 73.2107 19.2008 76.5193 22.8581C79.9749 26.677 81.485 31.4406 80.8635 36.6872C80.0892 43.2337 76.7535 47.9632 71.0193 50.6652C70.5223 50.8797 69.9904 50.979 69.4569 50.9567C59.6327 50.9439 49.8065 50.9397 39.9783 50.9439Z" fill="#999999" stroke="black" stroke-width="0.1" stroke-miterlimit="10"/>
<path d="M41.5037 49.7692C32.5846 49.7692 23.6637 49.6991 14.7465 49.8228C12.6617 49.8516 11.0378 49.0294 9.55923 47.7497C6.92732 45.4829 5.25177 42.4784 4.83671 38.8556C4.49624 35.8738 4.98399 32.9805 6.46826 30.3531C7.58721 28.3728 8.9682 26.6871 10.9192 25.6135C11.4069 25.3456 11.558 24.9211 11.4815 24.3502C11.1372 21.7352 11.9061 19.4045 13.4937 17.5499C15.7392 14.9286 18.6236 13.9684 21.9097 14.8297C22.3821 14.9534 22.5543 14.9101 22.7953 14.465C26.3224 7.89954 31.5804 3.96769 38.4892 2.59525C45.1665 1.27227 51.1266 3.13104 56.4421 7.50182C59.512 10.0283 61.6791 13.3584 63.15 17.1996C63.4273 17.9187 63.7391 18.0733 64.3952 18.0238C68.9647 17.7456 72.8533 19.5117 75.9729 22.9964C79.2245 26.6376 80.6572 31.1774 80.0719 36.1685C79.3393 42.4063 76.1929 46.9151 70.7837 49.4869C70.3171 49.693 69.8148 49.7885 69.3109 49.7671C60.0418 49.7671 50.7727 49.7678 41.5037 49.7692Z" fill="#E6E6E6" stroke="black" stroke-width="0.1" stroke-miterlimit="10"/>
</svg>
